<?xml version="1.0" encoding="UTF-8" standalone="no"?>
<svg
   xmlns:dc="http://purl.org/dc/elements/1.1/"
   xmlns:cc="http://creativecommons.org/ns#"
   xmlns:rdf="http://www.w3.org/1999/02/22-rdf-syntax-ns#"
   xmlns:svg="http://www.w3.org/2000/svg"
   xmlns="http://www.w3.org/2000/svg"
   viewBox="0 0 1250 1443.75"
   height="1443.75"
   width="1250"
   xml:space="preserve"
   version="1.1"
   id="svg2"><metadata
     id="metadata8"><rdf:RDF><cc:Work
         rdf:about=""><dc:format>image/svg+xml</dc:format><dc:type
           rdf:resource="http://purl.org/dc/dcmitype/StillImage" /></cc:Work></rdf:RDF></metadata><defs
     id="defs6"><clipPath
       id="clipPath18"
       clipPathUnits="userSpaceOnUse"><path
         id="path20"
         d="m 0,0 1000,0 0,1155 L 0,1155 0,0 Z" /></clipPath></defs><g
     transform="matrix(1.25,0,0,-1.25,0,1443.75)"
     id="g10"><g
       id="g12" /><g
       id="g14"><g
         clip-path="url(#clipPath18)"
         id="g16"><path
           id="path22"
           style="fill:#ffffff;fill-opacity:1;fill-rule:nonzero;stroke:none"
           d="m 0,0 1000,0 0,1155 L 0,1155 0,0 Z" /><g
           transform="translate(20,705)"
           id="g24"><text
             id="text26"
             style="font-variant:normal;font-weight:normal;font-size:75px;font-family:ArialMT;-inkscape-font-specification:ArialMT;writing-mode:lr-tb;fill:#000000;fill-opacity:1;fill-rule:nonzero;stroke:none"
             transform="scale(1,-1)"><tspan
               id="tspan28"
               y="0"
               x="0 69.434998 111.15 136.125 156.96001 198.675 215.34 252.84 294.55499 315.39001 336.22501 377.94 419.655 461.37 482.20499 532.22998 557.20502 598.91998 636.41998 678.13501 719.84998 740.685">Wer nicht 100 Prozent </tspan></text>
</g><g
           transform="translate(20,603)"
           id="g30"><text
             id="text32"
             style="font-variant:normal;font-weight:normal;font-size:75px;font-family:ArialMT;-inkscape-font-specification:ArialMT;writing-mode:lr-tb;fill:#000000;fill-opacity:1;fill-rule:nonzero;stroke:none"
             transform="scale(1,-1)"><tspan
               id="tspan34"
               y="0"
               x="0 41.715 83.43 125.145 166.86 208.575 229.41 266.91 308.625 350.34 392.05499 412.89001 433.72501 475.44 517.15503 558.87 600.58502 625.56 646.39502 667.22998 708.94501 725.60999 763.10999 804.82501 825.65997 846.495 863.15997 904.875">geben kann, gehört nicht in </tspan></text>
</g><g
           transform="translate(20,500)"
           id="g36"><text
             id="text38"
             style="font-variant:normal;font-weight:normal;font-size:75px;font-family:ArialMT;-inkscape-font-specification:ArialMT;writing-mode:lr-tb;fill:#000000;fill-opacity:1;fill-rule:nonzero;stroke:none"
             transform="scale(1,-1)"><tspan
               id="tspan40"
               y="0"
               x="0 41.715 83.43 125.145 145.98 183.48 225.19501 266.91 287.745 329.45999 371.17499 412.89001 433.72501 487.89001 504.55499 529.53003 571.245 592.08002 629.58002 671.29498 696.27002">den Job und wird zur </tspan></text>
</g><g
           transform="translate(20,397)"
           id="g42"><text
             id="text44"
             style="font-variant:normal;font-weight:normal;font-size:75px;font-family:ArialMT;-inkscape-font-specification:ArialMT;writing-mode:lr-tb;fill:#000000;fill-opacity:1;fill-rule:nonzero;stroke:none"
             transform="scale(1,-1)"><tspan
               id="tspan46"
               y="0"
               x="0 50.025002 91.739998 108.405 150.12 187.62 208.455 250.17 291.88501 333.60001 354.435 375.26999 416.98499 441.95999 462.79501 504.51001 546.22498 587.94 629.65503 654.63 696.34497">Belastung für andere.</tspan></text>
</g></g></g></g></svg>