<?xml version="1.0" encoding="UTF-8" standalone="no"?>
<svg
   xmlns:dc="http://purl.org/dc/elements/1.1/"
   xmlns:cc="http://creativecommons.org/ns#"
   xmlns:rdf="http://www.w3.org/1999/02/22-rdf-syntax-ns#"
   xmlns:svg="http://www.w3.org/2000/svg"
   xmlns="http://www.w3.org/2000/svg"
   viewBox="0 0 1250 1443.75"
   height="1443.75"
   width="1250"
   xml:space="preserve"
   version="1.1"
   id="svg2"><metadata
     id="metadata8"><rdf:RDF><cc:Work
         rdf:about=""><dc:format>image/svg+xml</dc:format><dc:type
           rdf:resource="http://purl.org/dc/dcmitype/StillImage" /></cc:Work></rdf:RDF></metadata><defs
     id="defs6"><clipPath
       id="clipPath18"
       clipPathUnits="userSpaceOnUse"><path
         id="path20"
         d="m 0,0 1000,0 0,1155 L 0,1155 0,0 Z" /></clipPath></defs><g
     transform="matrix(1.25,0,0,-1.25,0,1443.75)"
     id="g10"><g
       id="g12" /><g
       id="g14"><g
         clip-path="url(#clipPath18)"
         id="g16"><path
           id="path22"
           style="fill:#ffffff;fill-opacity:1;fill-rule:nonzero;stroke:none"
           d="m 0,0 1000,0 0,1155 L 0,1155 0,0 Z" /><g
           transform="translate(20,705)"
           id="g24"><text
             id="text26"
             style="font-variant:normal;font-weight:normal;font-size:75px;font-family:ArialMT;-inkscape-font-specification:ArialMT;writing-mode:lr-tb;fill:#000000;fill-opacity:1;fill-rule:nonzero;stroke:none"
             transform="scale(1,-1)"><tspan
               id="tspan28"
               y="0"
               x="0 20.834999 62.549999 83.385002 145.86 187.575 204.24001 245.955 287.67001 312.64499 329.3475 379.3725 404.3475 446.0625 487.7775 504.4425 525.27753 546.11249 583.61249 600.27753 641.99249 683.70752">In meiner Arbeit sind </tspan></text>
</g><g
           transform="translate(20,603)"
           id="g30"><text
             id="text32"
             style="font-variant:normal;font-weight:normal;font-size:75px;font-family:ArialMT;-inkscape-font-specification:ArialMT;writing-mode:lr-tb;fill:#000000;fill-opacity:1;fill-rule:nonzero;stroke:none"
             transform="scale(1,-1)"><tspan
               id="tspan34"
               y="0"
               x="0 37.5 79.214996 120.93 183.405 204.24001 245.955 287.67001 304.33499 346.04999 383.54999 425.26501 441.92999 462.76501 483.60001 504.435 546.15002 608.625 650.34003 671.17499 687.84003 729.55499 771.27002 812.98499 829.65002 871.36499">Teamfähigkeit, emotionale </tspan></text>
</g><g
           transform="translate(20,500)"
           id="g36"><text
             id="text38"
             style="font-variant:normal;font-weight:normal;font-size:75px;font-family:ArialMT;-inkscape-font-specification:ArialMT;writing-mode:lr-tb;fill:#000000;fill-opacity:1;fill-rule:nonzero;stroke:none"
             transform="scale(1,-1)"><tspan
               id="tspan40"
               y="0"
               x="0 20.834999 62.549999 83.385002 125.1 141.765 158.42999 175.095 216.81 258.52499 300.23999 337.73999 358.57501 400.29001 442.005 483.72 504.55499 554.58002 617.05499 658.77002 700.48499 721.32001 763.03497 779.70001 821.41498">Intelligenz und Empathie </tspan></text>
</g><g
           transform="translate(20,397)"
           id="g42"><text
             id="text44"
             style="font-variant:normal;font-weight:normal;font-size:75px;font-family:ArialMT;-inkscape-font-specification:ArialMT;writing-mode:lr-tb;fill:#000000;fill-opacity:1;fill-rule:nonzero;stroke:none"
             transform="scale(1,-1)"><tspan
               id="tspan46"
               y="0"
               x="0 54.165001 70.830002 108.33 150.045 170.88 187.545 229.25999">wichtig.</tspan></text>
</g></g></g></g></svg>