<?xml version="1.0" encoding="UTF-8" standalone="no"?>
<svg
   xmlns:dc="http://purl.org/dc/elements/1.1/"
   xmlns:cc="http://creativecommons.org/ns#"
   xmlns:rdf="http://www.w3.org/1999/02/22-rdf-syntax-ns#"
   xmlns:svg="http://www.w3.org/2000/svg"
   xmlns="http://www.w3.org/2000/svg"
   viewBox="0 0 1250 1443.75"
   height="1443.75"
   width="1250"
   xml:space="preserve"
   version="1.1"
   id="svg2"><metadata
     id="metadata8"><rdf:RDF><cc:Work
         rdf:about=""><dc:format>image/svg+xml</dc:format><dc:type
           rdf:resource="http://purl.org/dc/dcmitype/StillImage" /></cc:Work></rdf:RDF></metadata><defs
     id="defs6"><clipPath
       id="clipPath18"
       clipPathUnits="userSpaceOnUse"><path
         id="path20"
         d="m 0,0 1000,0 0,1155 L 0,1155 0,0 Z" /></clipPath></defs><g
     transform="matrix(1.25,0,0,-1.25,0,1443.75)"
     id="g10"><g
       id="g12" /><g
       id="g14"><g
         clip-path="url(#clipPath18)"
         id="g16"><path
           id="path22"
           style="fill:#ffffff;fill-opacity:1;fill-rule:nonzero;stroke:none"
           d="m 0,0 1000,0 0,1155 L 0,1155 0,0 Z" /><g
           transform="translate(20,603)"
           id="g24"><text
             id="text26"
             style="font-variant:normal;font-weight:normal;font-size:75px;font-family:ArialMT;-inkscape-font-specification:ArialMT;writing-mode:lr-tb;fill:#000000;fill-opacity:1;fill-rule:nonzero;stroke:none"
             transform="scale(1,-1)"><tspan
               id="tspan28"
               y="0"
               x="0 62.474998 104.19 120.855 162.57001 204.285 225.12 270.92999 295.905 337.62 354.285 391.785 433.5 450.16501 471 491.83499 546 562.66498 579.33002 595.995 616.83002 633.495 670.995 712.71002 733.54498 775.26001 791.92499 829.42499 871.14001 891.97498">Meine Freizeit will ich nicht </tspan></text>
</g><g
           transform="translate(20,501)"
           id="g30"><text
             id="text32"
             style="font-variant:normal;font-weight:normal;font-size:75px;font-family:ArialMT;-inkscape-font-specification:ArialMT;writing-mode:lr-tb;fill:#000000;fill-opacity:1;fill-rule:nonzero;stroke:none"
             transform="scale(1,-1)"><tspan
               id="tspan34"
               y="0"
               x="0 41.715 83.43 120.93 162.645 183.48 225.19501 266.91 304.41 346.125 366.95999 404.45999 446.17499 471.14999 512.86499 529.53003 571.245 612.96002 654.67499 696.39001">auch noch verplanen.</tspan></text>
</g></g></g></g></svg>