<?xml version="1.0" encoding="UTF-8" standalone="no"?>
<svg
   xmlns:dc="http://purl.org/dc/elements/1.1/"
   xmlns:cc="http://creativecommons.org/ns#"
   xmlns:rdf="http://www.w3.org/1999/02/22-rdf-syntax-ns#"
   xmlns:svg="http://www.w3.org/2000/svg"
   xmlns="http://www.w3.org/2000/svg"
   viewBox="0 0 1250 1443.75"
   height="1443.75"
   width="1250"
   xml:space="preserve"
   version="1.1"
   id="svg2"><metadata
     id="metadata8"><rdf:RDF><cc:Work
         rdf:about=""><dc:format>image/svg+xml</dc:format><dc:type
           rdf:resource="http://purl.org/dc/dcmitype/StillImage" /></cc:Work></rdf:RDF></metadata><defs
     id="defs6"><clipPath
       id="clipPath18"
       clipPathUnits="userSpaceOnUse"><path
         id="path20"
         d="m 0,0 1000,0 0,1155 L 0,1155 0,0 Z" /></clipPath></defs><g
     transform="matrix(1.25,0,0,-1.25,0,1443.75)"
     id="g10"><g
       id="g12" /><g
       id="g14"><g
         clip-path="url(#clipPath18)"
         id="g16"><path
           id="path22"
           style="fill:#ffffff;fill-opacity:1;fill-rule:nonzero;stroke:none"
           d="m 0,0 1000,0 0,1155 L 0,1155 0,0 Z" /><g
           transform="translate(20,760)"
           id="g24"><text
             id="text26"
             style="font-variant:normal;font-weight:normal;font-size:76px;font-family:ArialMT;-inkscape-font-specification:ArialMT;writing-mode:lr-tb;fill:#000000;fill-opacity:1;fill-rule:nonzero;stroke:none"
             transform="scale(1,-1)"><tspan
               id="tspan28"
               y="0"
               x="0 54.887199 118.1952 139.308 181.57919 198.4664 240.73759 261.8504 332.21121 374.48239 395.59521 416.70801 458.97919 501.2504 556.13757 598.40881 623.7168 665.98798 703.98798 725.10083 767.37201 809.64319 826.5304 868.80157">Um die Wettbewerbsfähig-</tspan></text>
</g><g
           transform="translate(20,656)"
           id="g30"><text
             id="text32"
             style="font-variant:normal;font-weight:normal;font-size:76px;font-family:ArialMT;-inkscape-font-specification:ArialMT;writing-mode:lr-tb;fill:#000000;fill-opacity:1;fill-rule:nonzero;stroke:none"
             transform="scale(1,-1)"><tspan
               id="tspan34"
               y="0"
               x="0 38 80.271202 97.158401 118.2712 139.384 202.692 244.9632 261.8504 304.12161 346.39279 384.39279 405.50562 460.39279 502.664 523.77679 566.04797 591.35602 633.6272 675.89838 718.16962 781.4776 823.74878 866.02002 904.02002">keit meines Unternehmens </tspan></text>
</g><g
           transform="translate(20,552)"
           id="g36"><text
             id="text38"
             style="font-variant:normal;font-weight:normal;font-size:76px;font-family:ArialMT;-inkscape-font-specification:ArialMT;writing-mode:lr-tb;fill:#000000;fill-opacity:1;fill-rule:nonzero;stroke:none"
             transform="scale(1,-1)"><tspan
               id="tspan40"
               y="0"
               x="0 38 80.271202 101.384 139.384 156.27119 194.27119 236.5424 278.8136 304.12161 346.39279 367.50562 388.61841 430.88959 447.77679 490.048 511.1608 528.04797 566.04797 608.31921 629.43201 671.70319 713.97443 751.97443 794.24561 815.3584 853.3584 895.62958">zu sichern, bin ich auch zu </tspan></text>
</g><g
           transform="translate(20,448)"
           id="g42"><text
             id="text44"
             style="font-variant:normal;font-weight:normal;font-size:76px;font-family:ArialMT;-inkscape-font-specification:ArialMT;writing-mode:lr-tb;fill:#000000;fill-opacity:1;fill-rule:nonzero;stroke:none"
             transform="scale(1,-1)"><tspan
               id="tspan46"
               y="0"
               x="0 42.271198 84.542397 109.8504 147.8504 190.1216 232.39281 249.28 266.16721 304.16721 346.43839 388.70959 430.9808 447.90601 498.59799 540.8692 578.8692 599.98199 625.28998 642.17719 680.17719 722.44843 764.7196 806.99078">persönlichen Abstrichen </tspan></text>
</g><g
           transform="translate(20,344)"
           id="g48"><text
             id="text50"
             style="font-variant:normal;font-weight:normal;font-size:76px;font-family:ArialMT;-inkscape-font-specification:ArialMT;writing-mode:lr-tb;fill:#000000;fill-opacity:1;fill-rule:nonzero;stroke:none"
             transform="scale(1,-1)"><tspan
               id="tspan52"
               y="0"
               x="0 42.271198 84.542397 109.8504 152.1216 169.0088 190.1216">bereit.</tspan></text>
</g></g></g></g></svg>