<?xml version="1.0" encoding="UTF-8" standalone="no"?>
<svg
   xmlns:dc="http://purl.org/dc/elements/1.1/"
   xmlns:cc="http://creativecommons.org/ns#"
   xmlns:rdf="http://www.w3.org/1999/02/22-rdf-syntax-ns#"
   xmlns:svg="http://www.w3.org/2000/svg"
   xmlns="http://www.w3.org/2000/svg"
   viewBox="0 0 1250 1443.75"
   height="1443.75"
   width="1250"
   xml:space="preserve"
   version="1.1"
   id="svg2"><metadata
     id="metadata8"><rdf:RDF><cc:Work
         rdf:about=""><dc:format>image/svg+xml</dc:format><dc:type
           rdf:resource="http://purl.org/dc/dcmitype/StillImage" /></cc:Work></rdf:RDF></metadata><defs
     id="defs6"><clipPath
       id="clipPath18"
       clipPathUnits="userSpaceOnUse"><path
         id="path20"
         d="m 0,0 1000,0 0,1155 L 0,1155 0,0 Z" /></clipPath></defs><g
     transform="matrix(1.25,0,0,-1.25,0,1443.75)"
     id="g10"><g
       id="g12" /><g
       id="g14"><g
         clip-path="url(#clipPath18)"
         id="g16"><path
           id="path22"
           style="fill:#ffffff;fill-opacity:1;fill-rule:nonzero;stroke:none"
           d="m 0,0 1000,0 0,1155 L 0,1155 0,0 Z" /><g
           transform="translate(20,705)"
           id="g24"><text
             id="text26"
             style="font-variant:normal;font-weight:normal;font-size:75px;font-family:ArialMT;-inkscape-font-specification:ArialMT;writing-mode:lr-tb;fill:#000000;fill-opacity:1;fill-rule:nonzero;stroke:none"
             transform="scale(1,-1)"><tspan
               id="tspan28"
               y="0"
               x="0 50.025002 75 116.715 158.42999 175.095 195.92999 237.645 279.35999 300.19501 337.69501 379.41 421.125 441.95999 479.45999 521.17499 542.01001 596.17499 637.89001 679.60498 717.10498 758.82001">Arbeiten von zu Hause </tspan></text>
</g><g
           transform="translate(20,603)"
           id="g30"><text
             id="text32"
             style="font-variant:normal;font-weight:normal;font-size:75px;font-family:ArialMT;-inkscape-font-specification:ArialMT;writing-mode:lr-tb;fill:#000000;fill-opacity:1;fill-rule:nonzero;stroke:none"
             transform="scale(1,-1)"><tspan
               id="tspan34"
               y="0"
               x="0 41.715 66.690002 83.355003 125.07 166.785 208.5 229.33501 250.17 291.88501 329.38501 350.22 412.69501 429.35999 450.19501 471.03 491.86499 529.36499 571.08002 612.79498 633.63 675.34497 717.06 758.77502">erlaubt es mir, Job und </tspan></text>
</g><g
           transform="translate(20,500)"
           id="g36"><text
             id="text38"
             style="font-variant:normal;font-weight:normal;font-size:75px;font-family:ArialMT;-inkscape-font-specification:ArialMT;writing-mode:lr-tb;fill:#000000;fill-opacity:1;fill-rule:nonzero;stroke:none"
             transform="scale(1,-1)"><tspan
               id="tspan40"
               y="0"
               x="0 45.810001 87.525002 150 166.66499 183.33 199.995 241.71001 262.54501 304.26001 329.23499 370.95001 412.66501 429.32999 471.04501 533.52002 550.185 591.90002 629.40002 650.23499 687.73499 729.45001">Familie problemlos zu </tspan></text>
</g><g
           transform="translate(20,397)"
           id="g42"><text
             id="text44"
             style="font-variant:normal;font-weight:normal;font-size:75px;font-family:ArialMT;-inkscape-font-specification:ArialMT;writing-mode:lr-tb;fill:#000000;fill-opacity:1;fill-rule:nonzero;stroke:none"
             transform="scale(1,-1)"><tspan
               id="tspan46"
               y="0"
               x="0 37.5 79.214996 104.19 145.905 162.57001 204.285 246 287.715 312.69 354.405 396.12">vereinbaren.</tspan></text>
</g></g></g></g></svg>