<?xml version="1.0" encoding="UTF-8" standalone="no"?>
<svg
   xmlns:dc="http://purl.org/dc/elements/1.1/"
   xmlns:cc="http://creativecommons.org/ns#"
   xmlns:rdf="http://www.w3.org/1999/02/22-rdf-syntax-ns#"
   xmlns:svg="http://www.w3.org/2000/svg"
   xmlns="http://www.w3.org/2000/svg"
   viewBox="0 0 1250 1443.75"
   height="1443.75"
   width="1250"
   xml:space="preserve"
   version="1.1"
   id="svg2"><metadata
     id="metadata8"><rdf:RDF><cc:Work
         rdf:about=""><dc:format>image/svg+xml</dc:format><dc:type
           rdf:resource="http://purl.org/dc/dcmitype/StillImage" /></cc:Work></rdf:RDF></metadata><defs
     id="defs6"><clipPath
       id="clipPath18"
       clipPathUnits="userSpaceOnUse"><path
         id="path20"
         d="m 0,0 1000,0 0,1155 L 0,1155 0,0 Z" /></clipPath></defs><g
     transform="matrix(1.25,0,0,-1.25,0,1443.75)"
     id="g10"><g
       id="g12" /><g
       id="g14"><g
         clip-path="url(#clipPath18)"
         id="g16"><path
           id="path22"
           style="fill:#ffffff;fill-opacity:1;fill-rule:nonzero;stroke:none"
           d="m 0,0 1000,0 0,1155 L 0,1155 0,0 Z" /><g
           transform="translate(20,654)"
           id="g24"><text
             id="text26"
             style="font-variant:normal;font-weight:normal;font-size:75px;font-family:ArialMT;-inkscape-font-specification:ArialMT;writing-mode:lr-tb;fill:#000000;fill-opacity:1;fill-rule:nonzero;stroke:none"
             transform="scale(1,-1)"><tspan
               id="tspan28"
               y="0"
               x="0 50.025002 91.739998 112.575 150.075 187.575 229.28999 271.005 287.67001 329.38501 371.10001 412.815 454.53 475.36499 492.03 529.53003 550.36499 571.20001 612.91498 629.58002 667.08002 708.79498 729.63 750.46503 771.29999 825.46503 867.17999 908.89502 950.60999">Entscheidend ist nicht, wann </tspan></text>
</g><g
           transform="translate(20,552)"
           id="g30"><text
             id="text32"
             style="font-variant:normal;font-weight:normal;font-size:75px;font-family:ArialMT;-inkscape-font-specification:ArialMT;writing-mode:lr-tb;fill:#000000;fill-opacity:1;fill-rule:nonzero;stroke:none"
             transform="scale(1,-1)"><tspan
               id="tspan34"
               y="0"
               x="0 41.715 83.43 125.145 150.12 170.955 225.12 266.83499 287.67001 304.33499 341.83499 383.54999 404.38501 446.10001 471.07501 512.78998 554.505 571.16998 592.005 633.71997 654.55499 675.39001 712.89001 754.60498 796.32001 838.03497 879.75 904.72498 946.44">oder wo ich arbeite, sondern </tspan></text>
</g><g
           transform="translate(20,449)"
           id="g36"><text
             id="text38"
             style="font-variant:normal;font-weight:normal;font-size:75px;font-family:ArialMT;-inkscape-font-specification:ArialMT;writing-mode:lr-tb;fill:#000000;fill-opacity:1;fill-rule:nonzero;stroke:none"
             transform="scale(1,-1)"><tspan
               id="tspan40"
               y="0"
               x="0 41.715 83.43 120.93 158.42999 179.265 220.98 237.645 279.35999 296.0625 346.08749 371.0625 412.7775 454.49249 471.1575 491.99249 512.82751 554.54248 596.25751 617.09253 658.8075 700.52252 721.35748 775.52252 792.1875 817.16248 858.8775">dass die Arbeit getan wird.</tspan></text>
</g></g></g></g></svg>