<?xml version="1.0" encoding="UTF-8" standalone="no"?>
<svg
   xmlns:dc="http://purl.org/dc/elements/1.1/"
   xmlns:cc="http://creativecommons.org/ns#"
   xmlns:rdf="http://www.w3.org/1999/02/22-rdf-syntax-ns#"
   xmlns:svg="http://www.w3.org/2000/svg"
   xmlns="http://www.w3.org/2000/svg"
   viewBox="0 0 1250 1443.75"
   height="1443.75"
   width="1250"
   xml:space="preserve"
   version="1.1"
   id="svg2"><metadata
     id="metadata8"><rdf:RDF><cc:Work
         rdf:about=""><dc:format>image/svg+xml</dc:format><dc:type
           rdf:resource="http://purl.org/dc/dcmitype/StillImage" /></cc:Work></rdf:RDF></metadata><defs
     id="defs6"><clipPath
       id="clipPath18"
       clipPathUnits="userSpaceOnUse"><path
         id="path20"
         d="m 0,0 1000,0 0,1155 L 0,1155 0,0 Z" /></clipPath></defs><g
     transform="matrix(1.25,0,0,-1.25,0,1443.75)"
     id="g10"><g
       id="g12" /><g
       id="g14"><g
         clip-path="url(#clipPath18)"
         id="g16"><path
           id="path22"
           style="fill:#ffffff;fill-opacity:1;fill-rule:nonzero;stroke:none"
           d="m 0,0 1000,0 0,1155 L 0,1155 0,0 Z" /><g
           transform="translate(20,705)"
           id="g24"><text
             id="text26"
             style="font-variant:normal;font-weight:normal;font-size:75px;font-family:ArialMT;-inkscape-font-specification:ArialMT;writing-mode:lr-tb;fill:#000000;fill-opacity:1;fill-rule:nonzero;stroke:none"
             transform="scale(1,-1)"><tspan
               id="tspan28"
               y="0"
               x="0 20.834999 58.334999 100.05 120.885 162.60001 179.265 220.98 241.815 304.29001 346.005 387.72 425.22 466.935 529.40997 571.125 587.78998 608.625 646.125 687.84003 712.815 729.47998 766.97998 804.47998 846.19501 887.90997">Ich bin manchmal zerissen </tspan></text>
</g><g
           transform="translate(20,603)"
           id="g30"><text
             id="text32"
             style="font-variant:normal;font-weight:normal;font-size:75px;font-family:ArialMT;-inkscape-font-specification:ArialMT;writing-mode:lr-tb;fill:#000000;fill-opacity:1;fill-rule:nonzero;stroke:none"
             transform="scale(1,-1)"><tspan
               id="tspan34"
               y="0"
               x="0 37.5 91.665001 108.33 145.83 183.33 225.045 266.76001 308.47501 329.31 371.02499 412.73999 475.215 496.04999 516.88501 571.04999 612.76501 650.26501 671.09998 687.76501 725.26501 766.97998">zwischen dem, was ich </tspan></text>
</g><g
           transform="translate(20,500)"
           id="g36"><text
             id="text38"
             style="font-variant:normal;font-weight:normal;font-size:75px;font-family:ArialMT;-inkscape-font-specification:ArialMT;writing-mode:lr-tb;fill:#000000;fill-opacity:1;fill-rule:nonzero;stroke:none"
             transform="scale(1,-1)"><tspan
               id="tspan40"
               y="0"
               x="0 41.715 66.690002 83.355003 120.855 162.57001 183.405 204.24001 258.405 275.07001 291.73499 308.39999 329.23499 370.95001 412.66501 454.38 475.215 516.92999 558.64502 621.12 641.95502 662.78998 716.95502 758.66998 796.16998 817.005 833.66998 871.16998 912.88501">privat will und dem, was ich </tspan></text>
</g><g
           transform="translate(20,397)"
           id="g42"><text
             id="text44"
             style="font-variant:normal;font-weight:normal;font-size:75px;font-family:ArialMT;-inkscape-font-specification:ArialMT;writing-mode:lr-tb;fill:#000000;fill-opacity:1;fill-rule:nonzero;stroke:none"
             transform="scale(1,-1)"><tspan
               id="tspan46"
               y="0"
               x="0 41.715 83.43 108.405 150.12 170.955 187.62 204.285 241.785 283.5 304.33499 341.83499 383.54999 400.215 416.88 437.715 479.42999">beruflich sollte.</tspan></text>
</g></g></g></g></svg>