<?xml version="1.0" encoding="UTF-8" standalone="no"?>
<svg
   xmlns:dc="http://purl.org/dc/elements/1.1/"
   xmlns:cc="http://creativecommons.org/ns#"
   xmlns:rdf="http://www.w3.org/1999/02/22-rdf-syntax-ns#"
   xmlns:svg="http://www.w3.org/2000/svg"
   xmlns="http://www.w3.org/2000/svg"
   viewBox="0 0 1250 1443.75"
   height="1443.75"
   width="1250"
   xml:space="preserve"
   version="1.1"
   id="svg2"><metadata
     id="metadata8"><rdf:RDF><cc:Work
         rdf:about=""><dc:format>image/svg+xml</dc:format><dc:type
           rdf:resource="http://purl.org/dc/dcmitype/StillImage" /></cc:Work></rdf:RDF></metadata><defs
     id="defs6"><clipPath
       id="clipPath18"
       clipPathUnits="userSpaceOnUse"><path
         id="path20"
         d="m 0,0 1000,0 0,1155 L 0,1155 0,0 Z" /></clipPath></defs><g
     transform="matrix(1.25,0,0,-1.25,0,1443.75)"
     id="g10"><g
       id="g12" /><g
       id="g14"><g
         clip-path="url(#clipPath18)"
         id="g16"><path
           id="path22"
           style="fill:#ffffff;fill-opacity:1;fill-rule:nonzero;stroke:none"
           d="m 0,0 1000,0 0,1155 L 0,1155 0,0 Z" /><g
           transform="translate(20,654)"
           id="g24"><text
             id="text26"
             style="font-variant:normal;font-weight:normal;font-size:75px;font-family:ArialMT;-inkscape-font-specification:ArialMT;writing-mode:lr-tb;fill:#000000;fill-opacity:1;fill-rule:nonzero;stroke:none"
             transform="scale(1,-1)"><tspan
               id="tspan28"
               y="0"
               x="0 54.165001 70.830002 112.545 133.38 179.19 220.905 237.57001 258.405 279.23999 295.905 337.62 358.45499 420.92999 462.64499 479.31 521.02502 562.73999 587.71503 604.41748 654.4425 679.41748 721.13251 762.84747 779.51251 800.34747">Die Zeit in meiner Arbeit </tspan></text>
</g><g
           transform="translate(20,552)"
           id="g30"><text
             id="text32"
             style="font-variant:normal;font-weight:normal;font-size:75px;font-family:ArialMT;-inkscape-font-specification:ArialMT;writing-mode:lr-tb;fill:#000000;fill-opacity:1;fill-rule:nonzero;stroke:none"
             transform="scale(1,-1)"><tspan
               id="tspan34"
               y="0"
               x="0 37.5 79.214996 104.19 145.905 170.88 187.545 229.25999 270.97501 312.69 333.52499 350.19 387.69 429.405 450.23999 512.71503 529.38 550.21503 571.04999 612.76501 633.59998 687.76501 729.47998 766.97998">verbringe ich mit etwas </tspan></text>
</g><g
           transform="translate(20,449)"
           id="g36"><text
             id="text38"
             style="font-variant:normal;font-weight:normal;font-size:75px;font-family:ArialMT;-inkscape-font-specification:ArialMT;writing-mode:lr-tb;fill:#000000;fill-opacity:1;fill-rule:nonzero;stroke:none"
             transform="scale(1,-1)"><tspan
               id="tspan40"
               y="0"
               x="0 50.025002 66.690002 108.405 150.12 187.62 229.33501 246 262.66501 304.38 366.85501">Sinnvollem.</tspan></text>
</g></g></g></g></svg>